<svg xmlns="http://www.w3.org/2000/svg" fill="none" viewBox="0 0 3000 2500" width="3000" height="2500"><defs><clipPath id="assetClipPath_sFB04Z56"><path d="m0 0 h 1649.796 v 2219.701 h -1649.796 v -2219.701 z" fill="#ffffff"/></clipPath><clipPath id="assetClipPath_T6m1qwqz"><path d="m0 0 h 2824 v 1003.807 h -2824 v -1003.807 z" fill="#ffffff"/></clipPath></defs><g transform="translate(658 144)"><g clip-path="url(#assetClipPath_sFB04Z56)" transform="scale(1.0037604649302094 1.0037604649302094)"><path d="m20.241 1605.557c1.356 9.566 4.93 31.34 26.112 31.764 19.924.398 27.536-27.959 27.536-27.959s0 26.688 24.57 28.806c17.014 1.467 27.536-22.876 27.536-22.876s.847 22.452 28.806 24.147c26.339 1.596 31.348-24.147 31.348-24.147s.316 33.692 30.077 33.89c19.063.127 25.841-26.265 28.592-40.577 0 0 49.59-280.187 156.454-385.699-8.378 61.809-1.35 257.929-1.35 257.929s421.251 3.43 600.805-5.94c2.233-64.583-9.198-145.472-6.966-210.055 115.068 27.539 322.586-35.392 469.37-159.04 174.664-147.132 173.25-375.262 173.42-379.979.296-8.201 8.657-32.804-22.325-33.259-16.628-.245-35.082 28.248-35.082 28.248s11.846-63.329-16.857-65.152c-27.209-1.728-31.437 41.46-31.437 41.46s-3.645-68.797-39.13-67.438c-21.389.819-19.588 35.756-19.645 44.438-.53-13.692-12.755-61.288-42.087-56.373-23.943 4.012-17.495 40.151-16.072 50.374.44 78.731-36.309 156.877-97.23 206.751-60.921 49.875-191.425 63.632-264.803 35.834-137.842-48.035-285.858-70.41-430.885-53.837-145.028 16.573-286.849 73.373-396.134 170.143-159.883 141.573-239.943 367.931-204.623 578.547z" fill="#FFFFFF"/><path d="m216.365 1661.182c-.073 0-.146 0-.219 0-16.337-.109-27.173-7.989-33.74-18.093-6.813 5.415-16.082 9.074-28.331 8.328-14.079-.853-23.581-6.001-29.784-12.438-6.5 6.601-15.463 12.13-26.862 11.145-11.822-1.019-19.985-6.083-25.478-12.58-6.243 6.757-14.569 11.782-25.164 11.782-.224 0-.448-.002-.675-.007-13.504-.27-24.136-6.713-30.744-18.632-4.331-7.811-5.967-16.148-6.986-23.294-17.63-105.295-7.376-216.295 29.657-321.001 37.051-104.756 98.904-197.556 178.873-268.366 54.282-48.065 117.52-87.503 187.954-117.217 67.567-28.504 139.827-47.3 214.772-55.864 71.198-8.135 145.575-7.222 221.065 2.716 71.17 9.37 143.55 26.768 215.131 51.712.101.035.201.072.302.11 72.985 27.651 198.278 10.859 252.95-33.897 58.341-47.763 93.005-121.203 92.836-196.586l-.109-.757c-.958-6.606-2.742-18.902-1.063-30.824 3.379-24.006 18.527-30.044 27.257-31.507 10.548-1.768 20.695 1.013 29.338 8.045 4.924 4.007 9.065 9.153 12.507 14.791 6.808-8.878 15.695-10.839 21.412-11.058 13.764-.529 32.271 5.745 43.538 37.866 9.78-10.935 21.206-12.318 28.248-11.873 8.354.531 15.509 4.331 20.69 10.99 6.689 8.597 9.196 21.185 9.773 33.306 6.335-4.407 13.464-7.515 20.892-7.414 12.719.187 22.267 3.881 28.378 10.98 8.992 10.446 7.128 24.214 6.127 31.611-.154 1.135-.345 2.547-.365 3.099l-.006.468c-.205 15.983-2.498 73.654-23.37 144.692-12.95 44.073-30.698 85.39-52.753 122.802-27.363 46.418-61.53 87.048-101.552 120.762-70.536 59.417-159.523 108.583-250.571 138.44-81.61 26.763-157.113 35.837-214.812 26.046-.146 28.198 1.824 59.363 3.739 89.646 2.279 36.047 4.636 73.322 3.5 106.2-.215 6.221-5.151 11.245-11.368 11.569-177.858 9.282-597.312 5.99-601.527 5.956-6.422-.052-11.664-5.151-11.895-11.57-.244-6.799-5.046-143.264-1.461-222.932-87.194 116.189-129.384 349.816-129.835 352.363-.011.058-.021.116-.032.174-2.305 11.991-5.364 21.491-9.353 29.042-9.267 17.546-21.866 21.27-30.885 21.27zm-18.216-46.003s.18 6.517 3.05 12.553c3.084 6.486 7.743 9.4 15.107 9.449h.041c6.831 0 12.905-11.212 16.675-30.782.584-3.253 13.284-73.183 38.484-154.625 34.771-112.371 75.594-192.247 121.335-237.408 3.654-3.609 9.199-4.491 13.793-2.196s7.219 7.258 6.529 12.347c-6.99 51.566-2.954 201.631-1.625 244.4 67.34.446 411.992 2.288 577.442-5.457.322-29.027-1.726-61.405-3.713-92.836-2.279-36.047-4.636-73.321-3.5-106.199.125-3.599 1.859-6.952 4.725-9.134 2.865-2.181 6.56-2.96 10.062-2.122 54.181 12.966 133.005 4.745 216.26-22.557 88.195-28.922 174.348-76.507 242.588-133.991 69.293-58.371 118.663-136.418 146.74-231.974 20.01-68.104 22.203-123.024 22.398-138.235.007-.522.014-.865.02-1.024.062-1.735.308-3.542.566-5.455.53-3.915 1.417-10.468-.532-12.733-.509-.591-2.771-2.526-10.543-2.641h-.059c-5.693 0-17.756 11.998-24.783 22.786-3.124 4.797-9.207 6.726-14.522 4.596-5.314-2.13-8.39-7.711-7.336-13.339 2.772-14.954 3.879-40.94-2.557-49.198-.959-1.23-1.783-1.677-3.267-1.771-.219-.014-.437-.021-.65-.021-14.281 0-18.053 30.391-18.085 30.703-.642 6.233-5.966 10.955-12.235 10.784-6.265-.155-11.356-5.089-11.688-11.347-.655-11.927-7.024-56.091-26.204-56.091-.16 0-.321.003-.483.009-3.104.119-8.283 4.206-8.111 30.238.006.881.011 1.65.007 2.289-.044 6.521-5.287 11.814-11.808 11.919-6.545.098-11.932-5.017-12.184-11.534-.302-7.807-6.261-32.549-17.89-42.011-3.315-2.698-6.476-3.621-10.223-2.991-2.106.353-6.026 1.01-7.458 11.183-1.2 8.525.264 18.614 1.05 24.033l.239 1.668c.073.526.111 1.057.114 1.588.226 40.407-9.022 81.685-26.746 119.371-17.723 37.686-43.617 71.136-74.883 96.732-30.582 25.037-78.113 42.675-133.838 49.666-53.116 6.663-105.104 2.349-142.661-11.836-143.979-50.149-291.09-68.545-425.428-53.196-148.608 16.982-286.95 76.363-389.541 167.204-156.525 138.601-235.323 361.389-200.745 567.578.017.1.032.2.046.3 2.498 17.612 7.591 21.313 14.471 21.451 8.582.204 14.588-15.036 15.719-19.118 1.603-5.785 7.242-9.517 13.188-8.71 5.918.805 10.345 5.813 10.39 11.776.008.292.171 4.932 2.272 9.339 2.279 4.779 5.772 7.124 11.328 7.603 5.849.511 12.979-9.991 15.508-15.722 2.295-5.199 7.925-8.354 13.487-7.167 5.526 1.179 9.481 5.778 9.501 11.417.283 2.938 2.41 11.804 17.541 12.721 6.536.396 11.222-1.531 14.752-6.065 2.911-3.739 3.975-7.919 4.104-8.46 1.082-6.084 6.585-10.237 12.757-9.732 6.189.5 10.952 5.768 11.011 11.977zm-60.164-.34s0 0 0 0z" fill="#000000"/><path d="m1055.051 2087.536s-33.195-494.835-55.064-670.05l-601.622 8.231 1.476 638.64-102.435 141.034 343.192 2.31s2.573-258.808 18.554-384.738c2.53-19.94 12.192-88.851 60.783-91.186 35.129-1.689 62.499 15.198 66.153 60.597 8.162 101.412 30.165 413.017 30.165 413.017s263.822-.472 377.843 0c-60.399-57.479-139.046-117.854-139.046-117.854z" fill="#000000"/><path d="m640.6 2219.701h-.083l-343.191-2.311c-4.497-.031-8.601-2.573-10.629-6.587s-1.643-8.826 1.001-12.464l100.135-137.867-1.467-634.726c-.015-6.574 5.263-11.937 11.836-12.027l601.622-8.231c6.118-.085 11.313 4.445 12.071 10.513 20.435 163.718 51.081 611.047 54.766 665.353 17.342 13.511 83.609 65.763 135.709 115.344 3.562 3.39 4.695 8.609 2.86 13.17-1.828 4.546-6.236 7.522-11.133 7.522h-.05c-112.682-.467-375.133-.004-377.771 0h-.021c-6.299 0-11.526-4.87-11.971-11.155-.22-3.115-22.092-312.706-30.156-412.899-2.774-34.472-20.826-51.153-53.615-49.574-32.608 1.567-44.893 44.756-49.455 80.711-15.71 123.791-18.434 380.765-18.46 383.346-.065 6.584-5.423 11.88-11.997 11.881zm-319.761-26.153 307.913 2.073c.75-52.495 4.574-264.473 18.496-374.168 1.807-14.243 5.229-35.494 14.039-55.517 16.107-36.606 40.471-45.299 58.072-46.145 21.667-1.033 39.532 4.136 53.111 15.386 14.968 12.401 23.573 31.321 25.578 56.235 7.199 89.43 25.371 345.301 29.385 401.96 46.708-.075 228.307-.336 335.925-.079-54.748-49.412-114.929-95.712-115.615-96.238-2.735-2.1-4.435-5.275-4.665-8.715-.325-4.847-32.122-477.184-53.701-658.707l-578.984 7.921 1.448 626.775c.006 2.543-.796 5.022-2.291 7.08z" fill="#000000"/><path d="m993.747 1296.386c-5.842 0-10.96-4.271-11.853-10.222-2.093-13.957-6.448-105.723-5.899-124.292.192-6.503 5.526-11.645 11.988-11.645.121 0 .24.001.361.005 6.625.196 11.836 5.725 11.641 12.35-.567 19.159 3.917 108.507 5.644 120.022.983 6.554-3.533 12.664-10.087 13.647-.604.09-1.203.134-1.795.134z" fill="#000000"/><path d="m571.153 24.561c39.819-15.096 83.419-23.791 129.897-24.511 292.953-4.587 480.524 310.226 337.086 565.669l-279.177 497.171c-17.942 31.931-63.653 32.658-82.567 1.28l-294.573-488.208c-127.345-211.026-21.788-471.36 189.334-551.4zm139.904 498.737c84.895-1.32 152.622-71.203 151.302-156.099-1.337-84.865-71.227-152.615-156.092-151.278-84.895 1.324-152.622 71.203-151.302 156.099 1.337 84.868 71.227 152.615 156.092 151.278z" fill="#FA2300"/><path d="m829.739 725.638c-3.263 0-6.459-1.593-8.378-4.526-6.169-9.429-16.966-15.98-28.177-17.097-11.208-1.116-23.088 3.176-30.995 11.205-3.875 3.934-10.208 3.984-14.142.107-3.936-3.875-3.983-10.207-.108-14.142 12.23-12.417 29.885-18.797 47.227-17.072 17.342 1.727 33.391 11.464 42.932 26.049 3.023 4.622 1.729 10.819-2.894 13.843-1.688 1.104-3.588 1.632-5.465 1.632z" fill="#000000"/><path d="m611.605 725.638c-1.877 0-3.775-.528-5.464-1.632-4.622-3.023-5.918-9.221-2.896-13.843 9.54-14.585 25.59-24.323 42.933-26.049 17.343-1.729 34.997 4.655 47.226 17.072 3.875 3.935 3.827 10.267-.108 14.142-3.933 3.875-10.266 3.828-14.142-.107-7.906-8.028-19.787-12.322-30.994-11.205-11.213 1.116-22.009 7.667-28.176 17.096-1.919 2.933-5.117 4.527-8.379 4.527z" fill="#000000"/><path d="m719.997 886.401c-15.425 0-30.85-5.147-42.703-15.387-23.122-19.973-29.058-56.223-13.513-82.527 2.81-4.754 8.942-6.332 13.697-3.521 4.755 2.81 6.331 8.942 3.521 13.697-10.599 17.933-6.396 43.6 9.368 57.216 15.763 13.618 41.768 14.042 57.97.951 16.202-13.092 21.244-38.608 11.239-56.878-2.652-4.844-.875-10.921 3.969-13.574 4.844-2.654 10.921-.875 13.574 3.968 14.674 26.799 7.553 62.835-16.212 82.04-11.582 9.359-26.247 14.014-40.911 14.015z" fill="#000000"/></g></g><g transform="translate(85 1364)"><g clip-path="url(#assetClipPath_T6m1qwqz)" transform="scale(1 1)"><path d="m27.928 392.008h1082.757v599.799h-1082.757z" fill="#CBCBCB"/><path d="m1110.686 1003.807h-1082.758c-6.627 0-12-5.373-12-12v-599.799c0-6.627 5.373-12 12-12h1082.758c6.627 0 12 5.373 12 12v599.8c0 6.627-5.373 12-12 12zm-1070.758-24h1058.758v-575.799h-1058.758v575.8z" fill="#CBCBCB"/><path d="m1697.81 349.427h412.026v642.381h-412.026z" fill="#F97393"/><path d="m2109.837 1003.807h-412.026c-6.627 0-12-5.373-12-12v-642.381c0-6.627 5.373-12 12-12h412.026c6.627 0 12 5.373 12 12v642.381c0 6.627-5.373 12-12 12zm-400.026-24h388.026v-618.381h-388.026z" fill="#F97393"/><path d="m133.926 60.315c-31.964-.081-64.186 18.845-76.328 48.414-12.142 29.568-.696 67.944 27.435 83.122-32.905-8.176-69.916 18.267-72.846 52.045-2.931 33.778 28.973 66.2 62.794 63.814-13.177 6.323-26.131 14.238-34.601 26.15s-11.534 28.599-4.285 41.291c7.248 12.692 26.373 18.088 37.392 8.485-15.447 24.938-5.998 61.885 19.525 76.345s62.073 3.572 75.522-22.497c30.917 30.302 76.757 44.585 119.414 37.211 42.658-7.375 81.041-36.219 99.99-75.142 27.713 9.014 56.854 18.139 85.51 12.84s55.922-30.35 52.895-59.335c-.828-7.925-3.793-15.476-7.298-22.632-18.146-37.043-52.198-65.954-91.694-77.85 16.044-14.943 33.469-33.402 30.896-55.176-3.232-27.35-35.918-40.69-63.457-40.668-27.54.022-56.135 7.464-81.978-2.051 27.442-25.611 21.105-77.719-11.675-96.008-28.874-16.109-58.775-1.21-78.952 20.347-17.781 18.997-12.903 11.551-35.186-2.536-15.841-10.015-34.239-16.121-53.073-16.168z" fill="#AEF876"/><path d="m265.481 488.605c-34.122.002-68.202-11.842-94.824-33.215-8.201 9.238-19.294 16.278-31.931 20.042-17.825 5.309-36.641 3.482-51.63-5.009-14.99-8.493-26.23-23.696-30.838-41.712-2.438-9.532-2.868-19.265-1.39-28.487-.5-.064-1-.139-1.502-.224-11.714-1.981-22.066-9.045-27.692-18.897-9.095-15.925-7.161-37.198 4.925-54.197 3.693-5.193 7.993-9.65 12.56-13.51-7.936-3.716-15.378-8.976-21.91-15.615-15.057-15.302-22.718-35.32-21.017-54.922s12.694-38.002 30.162-50.482c7.736-5.528 16.163-9.478 24.808-11.751-4.402-6.34-7.926-13.498-10.417-21.282-5.915-18.484-5.307-38.078 1.713-55.173 13.516-32.914 49.358-55.856 87.222-55.856h.236c20.324.052 40.884 6.284 59.456 18.025 6.255 3.954 10.545 7.414 13.677 9.941.194.156.395.318.598.481 1.992-1.941 4.428-4.543 5.738-5.943 8.668-9.261 22.866-21.552 41.278-27.514 18.017-5.833 36.095-4.143 52.281 4.888 18.731 10.45 31.623 30.745 34.486 54.288 1.942 15.974-.955 31.601-7.917 44.57 11.001 1.075 22.726.114 34.893-.882 8.582-.703 17.456-1.431 26.335-1.438h.081c34.426 0 71.325 17.596 75.303 51.26 2.365 20.014-7.518 36.81-21.146 51.851 34.702 15.385 64.135 43.273 80.804 77.303 3.095 6.316 7.339 15.953 8.457 26.665 3.848 36.84-29.523 66.255-62.647 72.38-28.53 5.276-57.371-2.388-81.837-10.143-21.905 37.646-60.809 65.037-103.803 72.47-8.101 1.4-16.311 2.085-24.511 2.085zm-96.947-63.121c3.116 0 6.139 1.214 8.399 3.43 28.245 27.682 69.999 40.695 108.971 33.956 38.971-6.737 73.934-33.012 91.245-68.57 2.619-5.384 8.806-8.01 14.501-6.159 24.968 8.121 53.27 17.325 79.616 12.451 22.73-4.204 45.49-23.806 43.142-46.288-.557-5.334-2.449-11.07-6.139-18.599-16.633-33.954-48.176-60.735-84.379-71.639-4.114-1.239-7.253-4.584-8.227-8.77-.975-4.186.364-8.573 3.509-11.502 15.194-14.151 29.001-29.395 27.158-44.986-2.226-18.835-27.907-30.077-51.472-30.077h-.059c-7.907.006-15.915.663-24.394 1.357-20.299 1.663-41.287 3.384-61.74-4.147-3.91-1.439-6.794-4.804-7.617-8.888-.824-4.084.529-8.303 3.575-11.146 10.094-9.421 14.962-24.572 13.021-40.529-1.94-15.957-10.297-29.5-22.354-36.226-28.125-15.691-54.366 7.408-64.345 18.068-7.726 8.254-12.406 13.005-18.755 14.659-8.771 2.283-14.824-2.605-20.169-6.917-2.828-2.281-6.348-5.12-11.435-8.336-14.747-9.323-30.894-14.272-46.692-14.312-.059 0-.122 0-.181 0-28.386 0-55.101 16.827-65.016 40.972-10.225 24.901-.135 56.042 22.033 68.003 5.32 2.871 7.675 9.252 5.493 14.891s-8.218 8.773-14.085 7.316c-12.266-3.048-26.046.015-37.795 8.408-11.746 8.393-19.11 20.431-20.203 33.028-1.093 12.598 4.088 25.725 14.213 36.015 10.127 10.29 23.177 15.681 35.781 14.792 5.733-.403 10.97 3.329 12.444 8.898 1.476 5.569-1.215 11.399-6.408 13.892-14.871 7.136-24.128 14.009-30.014 22.286-6.482 9.118-7.981 20.791-3.644 28.386 2.035 3.563 6.295 6.364 10.854 7.135 1.948.329 5.61.541 8.233-1.745 4.475-3.901 11.13-3.942 15.653-.098 4.524 3.844 5.558 10.417 2.432 15.464-5.652 9.126-7.175 21.084-4.177 32.808 2.999 11.725 10.075 21.485 19.416 26.777 9.343 5.292 21.353 6.345 32.947 2.89 11.599-3.455 21.073-10.908 25.996-20.448 1.746-3.385 4.996-5.74 8.758-6.346.635-.102 1.273-.152 1.906-.152zm42.127-346.466h.01z" fill="#AEF876"/><path d="m199.353 294.663h713.63v697.144h-713.63z" fill="#A798F8"/><path d="m912.984 1003.807h-713.63c-6.627 0-12-5.373-12-12v-697.144c0-6.627 5.373-12 12-12h713.631c6.627 0 12 5.373 12 12v697.144c0 6.627-5.373 12-12 12zm-701.63-24h689.631v-673.144h-689.631z" fill="#A798F8"/><path d="m506.935 771.281h102.203v220.526h-102.203z" fill="#FFD200"/><path d="m609.139 1003.807h-102.203c-6.627 0-12-5.373-12-12v-220.526c0-6.627 5.373-12 12-12h102.203c6.627 0 12 5.373 12 12v220.526c0 6.627-5.373 12-12 12zm-90.203-24h78.203v-196.526h-78.203z" fill="#FFD200"/><path d="m270.717 452.464h92.912v158.544h-92.912z" fill="#00C9FC"/><path d="m363.629 623.008h-92.912c-6.627 0-12-5.373-12-12v-158.544c0-6.627 5.373-12 12-12h92.912c6.627 0 12 5.373 12 12v158.544c0 6.627-5.373 12-12 12zm-80.912-24h68.912v-134.544h-68.912z" fill="#E5E5E5"/><path d="m505.319 452.464h92.912v158.544h-92.912z" fill="#00C9FC"/><path d="m598.23 623.008h-92.911c-6.627 0-12-5.373-12-12v-158.544c0-6.627 5.373-12 12-12h92.911c6.627 0 12 5.373 12 12v158.544c0 6.627-5.373 12-12 12zm-80.911-24h68.911v-134.544h-68.911z" fill="#E5E5E5"/><path d="m739.921 452.464h92.912v158.544h-92.912z" fill="#00C9FC"/><path d="m832.833 623.008h-92.912c-6.627 0-12-5.373-12-12v-158.544c0-6.627 5.373-12 12-12h92.912c6.627 0 12 5.373 12 12v158.544c0 6.627-5.373 12-12 12zm-80.912-24h68.912v-134.544h-68.912z" fill="#E5E5E5"/><path d="m270.717 739.932h92.912v143.942h-92.912z" fill="#00C9FC"/><path d="m363.629 895.875h-92.912c-6.627 0-12-5.373-12-12v-143.942c0-6.627 5.373-12 12-12h92.912c6.627 0 12 5.373 12 12v143.942c0 6.627-5.373 12-12 12zm-80.912-24h68.912v-119.942h-68.912z" fill="#E5E5E5"/><path d="m739.921 739.932h92.912v143.942h-92.912z" fill="#00C9FC"/><path d="m832.833 895.875h-92.912c-6.627 0-12-5.373-12-12v-143.942c0-6.627 5.373-12 12-12h92.912c6.627 0 12 5.373 12 12v143.942c0 6.627-5.373 12-12 12zm-80.912-24h68.912v-119.942h-68.912z" fill="#E5E5E5"/><path d="m1072.948 488.058h713.63v503.749h-713.63z" fill="#00C9FC"/><path d="m1786.578 1003.807h-713.63c-6.627 0-12-5.373-12-12v-503.75c0-6.627 5.373-12 12-12h713.63c6.627 0 12 5.373 12 12v503.75c0 6.627-5.373 12-12 12zm-701.63-24h689.63v-479.75h-689.63z" fill="#00C9FC"/><path d="m1155.817 571.37h92.912v117.667h-92.912z" fill="#79DEFB"/><path d="m1248.729 701.037h-92.912c-6.627 0-12-5.373-12-12v-117.667c0-6.627 5.373-12 12-12h92.912c6.627 0 12 5.373 12 12v117.667c0 6.627-5.373 12-12 12zm-80.913-24h68.912v-93.667h-68.912z" fill="#E6FFD6"/><path d="m1390.419 571.37h92.912v117.667h-92.912z" fill="#79DEFB"/><path d="m1483.33 701.037h-92.911c-6.627 0-12-5.373-12-12v-117.667c0-6.627 5.373-12 12-12h92.911c6.627 0 12 5.373 12 12v117.667c0 6.627-5.373 12-12 12zm-80.911-24h68.911v-93.667h-68.911z" fill="#E6FFD6"/><path d="m1625.021 571.37h92.912v117.667h-92.912z" fill="#79DEFB"/><path d="m1717.933 701.037h-92.912c-6.627 0-12-5.373-12-12v-117.667c0-6.627 5.373-12 12-12h92.912c6.627 0 12 5.373 12 12v117.667c0 6.627-5.373 12-12 12zm-80.913-24h68.912v-93.667h-68.912z" fill="#E6FFD6"/><path d="m1330.707 771.281h211.507v220.526h-211.507z" fill="#79DEFB"/><path d="m1542.215 1003.807h-211.508c-6.627 0-12-5.373-12-12v-220.526c0-6.627 5.373-12 12-12h211.508c6.627 0 12 5.373 12 12v220.526c0 6.627-5.373 12-12 12zm-199.508-24h187.508v-196.526h-187.508z" fill="#F60080"/><path d="m1436.875 1003.807c-6.628 0-12-5.373-12-12v-220.526c0-6.627 5.372-12 12-12s12 5.373 12 12v220.526c0 6.627-5.372 12-12 12z" fill="#F60080"/><path d="m1316.871 747.19h244.245c29.411 0 53.289 23.878 53.289 53.289v40.433h-350.824v-40.433c0-29.411 23.878-53.289 53.289-53.289z" fill="#E6FFD6"/><path d="m1614.405 852.912h-350.823c-6.627 0-12-5.373-12-12v-40.433c0-36 29.288-65.289 65.289-65.289h244.245c36.001 0 65.289 29.289 65.289 65.289v40.433c0 6.627-5.373 12-12 12zm-338.823-24h326.823v-28.433c0-22.767-18.522-41.289-41.289-41.289h-244.245c-22.767 0-41.289 18.522-41.289 41.289z" fill="#E6FFD6"/><path d="m1946.39 12h525.526v979.807h-525.526z" fill="#FFD200"/><path d="m2471.916 1003.807h-525.526c-6.628 0-12-5.373-12-12v-979.807c-0-6.628 5.372-12 12-12h525.526c6.627 0 12 5.373 12 12v979.807c0 6.627-5.373 12-12 12zm-513.526-24h501.526v-955.807h-501.526z" fill="#FFD200"/><path d="m2044.789 86.639h92.912v199.76h-92.912z" fill="#00C9FC"/><path d="m2137.701 298.399h-92.912c-6.627 0-12-5.373-12-12v-199.76c0-6.627 5.373-12 12-12h92.912c6.627 0 12 5.373 12 12v199.76c0 6.627-5.373 12-12 12zm-80.912-24h68.912v-175.76h-68.912z" fill="#FFFFFF"/><path d="m2279.391 86.639h92.912v199.76h-92.912z" fill="#00C9FC"/><path d="m2372.303 298.399h-92.911c-6.627 0-12-5.373-12-12v-199.76c0-6.627 5.373-12 12-12h92.911c6.627 0 12 5.373 12 12v199.76c0 6.627-5.373 12-12 12zm-80.911-24h68.911v-175.76h-68.911z" fill="#FFFFFF"/><path d="m2044.789 376.427h92.912v199.76h-92.912z" fill="#00C9FC"/><path d="m2137.701 588.187h-92.912c-6.627 0-12-5.373-12-12v-199.76c0-6.627 5.373-12 12-12h92.912c6.627 0 12 5.373 12 12v199.76c0 6.627-5.373 12-12 12zm-80.912-24h68.912v-175.76h-68.912z" fill="#FFFFFF"/><path d="m2279.391 376.427h92.912v199.76h-92.912z" fill="#00C9FC"/><path d="m2372.303 588.187h-92.911c-6.627 0-12-5.373-12-12v-199.76c0-6.627 5.373-12 12-12h92.911c6.627 0 12 5.373 12 12v199.76c0 6.627-5.373 12-12 12zm-80.911-24h68.911v-175.76h-68.911z" fill="#FFFFFF"/><path d="m2141.034 645.82h136.239v237.564h-136.239z" fill="#F57800"/><path d="m2277.272 895.384h-136.238c-6.627 0-12-5.373-12-12v-237.563c0-6.627 5.373-12 12-12h136.238c6.627 0 12 5.373 12 12v237.563c0 6.627-5.373 12-12 12zm-124.238-24h112.238v-213.563h-112.238z" fill="#F57800"/><g fill="#FFFFFF"><path d="m2331.883 783.281h-228.567c-6.627 0-12-5.373-12-12s5.373-12 12-12h228.567c6.628 0 12 5.373 12 12s-5.372 12-12 12z" fill="#FFFFFF"/><path d="m2322.754 896.04c-6.627 0-12-5.373-12-12v-107.027c0-6.627 5.373-12 12-12s12 5.373 12 12v107.027c0 6.627-5.373 12-12 12z" fill="#FFFFFF"/><path d="m2169.262 871.136c-6.627 0-12-5.373-12-12v-82.123c0-6.627 5.373-12 12-12s12 5.373 12 12v82.123c0 6.627-5.373 12-12 12z" fill="#FFFFFF"/><path d="m2250.937 871.136c-6.627 0-12-5.373-12-12v-82.123c0-6.627 5.373-12 12-12s12 5.373 12 12v82.123c0 6.627-5.373 12-12 12z" fill="#FFFFFF"/></g><path d="m2060.089 859.136v44.829h-27.224v39.777h-45.652l-.548 48.065h336.089v-132.671z" fill="#E6FFD6"/><path d="m2322.754 1003.807h-336.089c-3.206 0-6.279-1.283-8.533-3.563-2.255-2.28-3.503-5.367-3.466-8.573l.548-48.065c.075-6.574 5.425-11.863 11.999-11.863h33.652v-27.778c0-6.627 5.373-12 12-12h15.224v-32.829c0-6.627 5.373-12 12-12h262.665c6.627 0 12 5.373 12 12v132.671c0 6.627-5.373 12-12 12zm-323.951-24h311.951v-108.671h-238.665v32.829c0 6.627-5.373 12-12 12h-15.224v27.778c0 6.627-5.373 12-12 12h-33.788l-.274 24.065z" fill="#E6FFD6"/><path d="m2556.228 739.932h17.949v251.875h-17.949z" fill="#F57800"/><rect fill="#F57800" height="275.875" rx="12" width="41.949" x="2544.229" y="727.932"/><path d="m2458.348 390.491c-64.425-2.732-102.914 91.18-44.062 131.536-79.391-13.949-89.352 114.468-9.059 115.859-62.149 28.457-38.809 99.284-1.347 75.927-32.129 64.965 52.002 117.779 85.658 53.847 57.057 65.03 163.663 44.568 197.729-37.932 44.55 21.368 123.771 24.88 124.733-46.498-9.163-48.154-47.857-86.166-89.214-100.479 47.006-41.429 31.352-94.312-29.347-95.845-24.817.022-50.587 7.465-73.878-2.05 50.544-65.474-29.711-144.905-81.673-75.657-21.176 31.306-20.698-17.414-79.541-18.709z" fill="#AEF876"/><path d="m2574.717 818.153c-30.86 0-60.348-11.137-83.292-31.582-7.805 9.583-17.375 16.272-28.219 19.626-13.837 4.28-28.976 2.801-42.629-4.167-23.41-11.949-40.618-39.494-34.775-71.779-4.342-.479-8.521-1.852-12.388-4.13-12.353-7.277-19.474-22.504-18.585-39.738.827-16.056 8.253-31.038 20.772-42.977-13.179-6.113-23.708-16.37-30.376-30.031-12.242-25.082-9.283-57.886 7.195-79.774 8.689-11.543 20.442-19.238 34-22.626-4.679-6.869-8.186-14.45-10.408-22.584-4.334-15.862-3.679-33.083 1.894-49.8 5.666-17 16.207-32.278 29.682-43.019 14.96-11.926 32.641-17.829 51.148-17.073 33.541.774 50.866 15.55 61.223 24.383 1.477 1.26 3.315 2.828 4.723 3.881.767-.846 1.851-2.188 3.269-4.284.109-.162.224-.322.341-.479 17.232-22.966 39.399-34.028 62.424-31.14 22.184 2.781 41.808 18.55 51.214 41.154 8.782 21.104 7.46 44.149-3.341 65.232 9.699 1.039 20.105.092 30.91-.89 7.782-.708 15.829-1.44 23.931-1.447.095.004.21.001.313.004 32.39.817 56.822 15.328 65.358 38.815 7.502 20.64 1.697 43.992-15.51 64.815 16.488 8.244 31.948 19.823 44.69 33.619 18.465 19.993 30.743 43.793 35.507 68.828.151.792.222 1.598.211 2.405-.46 34.114-16.876 51.395-30.566 59.884-28.11 17.429-69.294 13.644-100.178 2.029-19.609 37.879-55.197 64.112-97.267 71.087-7.12 1.181-14.232 1.76-21.271 1.76zm-85.179-62.493c3.432 0 6.727 1.473 9.02 4.085 23.595 26.893 57.679 38.911 93.506 32.97 37.784-6.264 69.228-31.523 84.111-67.567 1.259-3.049 3.718-5.445 6.797-6.625 3.081-1.18 6.509-1.042 9.484.385 26.542 12.731 65.408 18.184 88.328 3.971 12.405-7.692 18.69-20.327 19.192-38.604-9.318-46.12-47.325-78.489-81.115-90.184-4.034-1.396-7.023-4.831-7.849-9.019-.825-4.189.637-8.5 3.839-11.323 18.934-16.688 27.246-36.546 21.692-51.826-5.099-14.03-20.859-22.414-43.251-23.017-6.973.016-14.09.664-21.621 1.348-18.557 1.688-37.745 3.433-56.648-4.29-3.469-1.417-6.077-4.374-7.05-7.992-.974-3.619-.201-7.484 2.089-10.45 13.682-17.723 17.221-38.24 9.708-56.291-6.104-14.671-18.382-24.849-32.041-26.561-14.049-1.762-28.267 5.878-40.075 21.509-4.445 6.529-10.712 14.069-19.913 15.319-9.665 1.316-16.628-4.622-23.356-10.36-9.455-8.063-21.222-18.1-46.3-18.651-.082-.002-.163-.005-.245-.008-28.979-1.214-49.62 21.06-57.165 43.697-6.815 20.448-5.036 48.512 20.397 65.952 4.657 3.194 6.458 9.203 4.324 14.432-2.134 5.228-7.63 8.262-13.187 7.284-21.846-3.838-34.146 5.596-40.615 14.188-11.093 14.734-13.111 37.786-4.801 54.812 5.023 10.293 15.806 22.646 38.641 23.042 5.603.097 10.392 4.058 11.538 9.543s-1.655 11.033-6.75 13.366c-18.87 8.64-30.618 23.153-31.426 38.821-.478 9.265 3.071 15.628 6.8 17.825 3.079 1.814 7.096 1.205 11.935-1.812 4.552-2.837 10.433-2.311 14.407 1.292s5.075 9.404 2.698 14.211c-13.72 27.74-1.907 51.946 16.852 61.521 14.346 7.322 34.339 6.284 47.431-18.583 1.84-3.496 5.284-5.862 9.208-6.327.472-.056.942-.083 1.411-.083z" fill="#AEF876"/></g></g></svg>